<?xml version="1.0" encoding="UTF-8"?>
<svg version="1.1" viewBox="0 0 2800 2800" xmlns="http://www.w3.org/2000/svg">
 <g transform="translate(0 1747.6)">
  <rect y="-1747.6" width="2800" height="2800" fill="#fc0"/>
  <g transform="matrix(.90003 0 0 .90003 139.95 -201.54)">
   <path d="m355.09-1139.5c-54.045 0.1464-107.68 39.728-156.84 140.81-220.79 454 565.69 361.56 565.69 361.56-26.424-22.637-220.16-502.89-408.84-502.38zm2089.8 0c-188.68-0.5111-382.42 479.74-408.84 502.38 0 0 786.48 92.433 565.69-361.56-49.16-101.08-102.8-140.67-156.84-140.81zm-1837.2 524.69c-242.78 0.2268-617.01 31.445-405.25 326.09 294.63 409.95 586.88-326.03 586.88-326.03-11.749 4.5222-86.626-0.1513-181.62-0.0625zm1584.5 0c-94.999-0.0888-169.88 4.5847-181.62 0.0625 0 0 292.25 735.98 586.88 326.03 211.76-294.65-162.47-325.87-405.25-326.09z" fill="#ffff91"/>
   <path d="m1400-1140.5c-436.06 0-789.54 353.52-789.54 789.57 0 344.78 220.99 637.94 529.06 745.56l260.48 305.18 260.48-305.18c308.07-107.62 529.06-400.78 529.06-745.56 0-436.06-353.49-789.57-789.54-789.57z"/>
   <path transform="translate(0 -1747.6)" d="m1400 650.59c-415.48 0-752.28 336.84-752.28 752.31 0 328.51 210.56 607.83 504.09 710.38l248.19 290.78 248.19-290.78c293.53-102.54 504.09-381.86 504.09-710.38 0-415.48-336.8-752.31-752.28-752.31z" fill="#ff0"/>
   <path transform="translate(0 -1747.6)" d="m1472.9 700.5c-28.087 0-50.844 21.91-50.844 48.938s22.757 48.938 50.844 48.938 50.875-21.91 50.875-48.938-22.788-48.938-50.875-48.938zm-152.56 7.6875c-383.82 42.22-569.97 410.69-569.97 410.69-23.029 57.573 55.638 105.53 86.344 40.281 201.51-353.11 502.82-343.49 529.69-381.87 26.868-38.382 0-69.094-46.062-69.094z" fill="#ffff91"/>
   <g transform="translate(27.046)">
    <g transform="matrix(.69398 0 0 .69398 301.1 -290.36)">
     <path transform="matrix(1.0912 0 0 1.0912 -113.46 -1873.6)" d="m1245.7 1307.3c0 107.92-86.88 195.41-194.05 195.41s-194.05-87.488-194.05-195.41 86.88-195.41 194.05-195.41 194.05 87.488 194.05 195.41z" fill="#808000"/>
     <path transform="translate(-10.856 -1747.6)" d="m1245.7 1307.3c0 107.92-86.88 195.41-194.05 195.41s-194.05-87.488-194.05-195.41 86.88-195.41 194.05-195.41 194.05 87.488 194.05 195.41z" fill="#fff"/>
     <g transform="translate(2480.6 -92.277)">
      <path transform="matrix(1.0663 0 0 1.0663 92.837 -1842.6)" d="m-1270.2 1432.1c0 71.948-58.325 130.27-130.27 130.27s-130.27-58.325-130.27-130.27c0-71.948 58.325-130.27 130.27-130.27s130.27 58.325 130.27 130.27z" fill="#003232"/>
      <path transform="translate(0 -1747.6)" d="m-1270.2 1432.1c0 71.948-58.325 130.27-130.27 130.27s-130.27-58.325-130.27-130.27c0-71.948 58.325-130.27 130.27-130.27s130.27 58.325 130.27 130.27z" fill="#008080"/>
      <path transform="matrix(.55069 0 0 .55069 -629.23 -1104.2)" d="m-1270.2 1432.1c0 71.948-58.325 130.27-130.27 130.27s-130.27-58.325-130.27-130.27c0-71.948 58.325-130.27 130.27-130.27s130.27 58.325 130.27 130.27z" fill="#004646"/>
      <path transform="matrix(.35182 0 0 .35182 -940.36 -869.25)" d="m-1270.2 1432.1c0 71.948-58.325 130.27-130.27 130.27s-130.27-58.325-130.27-130.27c0-71.948 58.325-130.27 130.27-130.27s130.27 58.325 130.27 130.27z" fill="#fff"/>
      <path transform="matrix(.2045 0 0 .2045 -1078.5 -557.53)" d="m-1270.2 1432.1c0 71.948-58.325 130.27-130.27 130.27s-130.27-58.325-130.27-130.27c0-71.948 58.325-130.27 130.27-130.27s130.27 58.325 130.27 130.27z" fill="#fff"/>
     </g>
    </g>
    <path d="m819.35-907.49c29.741-16.378 137.18-114.06 304.65 8.5715-3.0097-100.13-72.759-267.04-281.53-241.61-12.152 60.684-23.119 233.03-23.119 233.03z"/>
    <path d="m839.84-508.45c-4.6921 0.11629-9.6413 1.5596-14.856 4.6853-23.68 14.195 29.134 28.583 70.096 54.418-7.7397-11.375-26.567-59.814-55.241-59.103zm-42.739 16.616c-9.3524 0.0308-17.934 3.89-24.318 14.239-14.494 23.498 39.028 11.975 87.283 16.067-10.124-5.4684-39.065-30.384-62.966-30.306z" fill="#808000"/>
    <g transform="matrix(-1 0 0 1 2745.9 0)">
     <g transform="matrix(.69398 0 0 .69398 301.1 -290.36)">
      <path transform="matrix(1.0912 0 0 1.0912 -113.46 -1873.6)" d="m1245.7 1307.3c0 107.92-86.88 195.41-194.05 195.41s-194.05-87.488-194.05-195.41 86.88-195.41 194.05-195.41 194.05 87.488 194.05 195.41z" fill="#808000"/>
      <path transform="translate(-10.856 -1747.6)" d="m1245.7 1307.3c0 107.92-86.88 195.41-194.05 195.41s-194.05-87.488-194.05-195.41 86.88-195.41 194.05-195.41 194.05 87.488 194.05 195.41z" fill="#fff"/>
      <g transform="translate(2480.6 -92.277)">
       <path transform="matrix(1.0663 0 0 1.0663 92.837 -1842.6)" d="m-1270.2 1432.1c0 71.948-58.325 130.27-130.27 130.27s-130.27-58.325-130.27-130.27c0-71.948 58.325-130.27 130.27-130.27s130.27 58.325 130.27 130.27z" fill="#003232"/>
       <path transform="translate(0 -1747.6)" d="m-1270.2 1432.1c0 71.948-58.325 130.27-130.27 130.27s-130.27-58.325-130.27-130.27c0-71.948 58.325-130.27 130.27-130.27s130.27 58.325 130.27 130.27z" fill="#008080"/>
       <path transform="matrix(.55069 0 0 .55069 -629.23 -1104.2)" d="m-1270.2 1432.1c0 71.948-58.325 130.27-130.27 130.27s-130.27-58.325-130.27-130.27c0-71.948 58.325-130.27 130.27-130.27s130.27 58.325 130.27 130.27z" fill="#004646"/>
       <path transform="matrix(.35182 0 0 .35182 -940.36 -869.25)" d="m-1270.2 1432.1c0 71.948-58.325 130.27-130.27 130.27s-130.27-58.325-130.27-130.27c0-71.948 58.325-130.27 130.27-130.27s130.27 58.325 130.27 130.27z" fill="#fff"/>
       <path transform="matrix(.2045 0 0 .2045 -1078.5 -557.53)" d="m-1270.2 1432.1c0 71.948-58.325 130.27-130.27 130.27s-130.27-58.325-130.27-130.27c0-71.948 58.325-130.27 130.27-130.27s130.27 58.325 130.27 130.27z" fill="#fff"/>
      </g>
     </g>
     <path d="m819.35-907.49c29.741-16.378 137.18-114.06 304.65 8.5715-3.0097-100.13-72.759-267.04-281.53-241.61-12.152 60.684-23.119 233.03-23.119 233.03z"/>
     <path d="m839.84-508.45c-4.6921 0.11629-9.6413 1.5596-14.856 4.6853-23.68 14.195 29.134 28.583 70.096 54.418-7.7397-11.375-26.567-59.814-55.241-59.103zm-42.739 16.616c-9.3524 0.0308-17.934 3.89-24.318 14.239-14.494 23.498 39.028 11.975 87.283 16.067-10.124-5.4684-39.065-30.384-62.966-30.306z" fill="#808000"/>
    </g>
   </g>
   <path transform="translate(0 -1747.6)" d="m1126 1371.8c-37.506 0.8576-60.483 60.248-28.25 80.969 2.8304-13.343 7.0451-24.127 11.969-32.844 1.8918 28.192 9.7631 55.883 22.781 80.875 131.07 244.04 429.5 237.05 542.41-15.875 8.8656-20.661 14.095-42.842 15.219-65.281 4.9913 8.7655 9.2955 19.639 12.156 33.125 32.745-21.05 8.4647-82.01-30.094-80.969-8.8981 0.2404-18.542 3.7788-28.438 11.875 0 0 15.916 2.0345 31.656 16.969-154.59 81.758-397.39 73.681-545.59 9-2.6639-2.0819-5.2477-4.2387-7.75-6.4687 16.518-17.235 34.219-19.5 34.219-19.5-9.8954-8.0962-19.571-11.635-28.469-11.875-0.6025-0.016-1.2172-0.014-1.8125 0z" fill="#808000"/>
   <path d="m1680.2-333.23c0 108.11-125.44 235.75-280.19 235.75-154.74 0-280.19-127.64-280.19-235.75 0 0 73.566 69.088 280.19 69.088s280.19-69.088 280.19-69.088z" fill="#800000"/>
   <path transform="translate(0 -1747.6)" d="m1400 1519c-76.206 0-144.6 23.119-191.34 59.75 50.081 42.264 117.36 71.437 191.34 71.437 73.979 0 141.26-29.173 191.34-71.437-46.747-36.631-115.14-59.75-191.34-59.75z" fill="#f00"/>
   <path transform="translate(0 -1747.6)" d="m1168.6 1443.2 5.0312 59.469c147.01 73.767 298.45 63.586 452.69 0l5.0312-59.469c-42.856 18.955-116.57 40.281-231.38 40.281s-188.52-21.326-231.38-40.281z" fill="#fff"/>
   <path transform="translate(0 -1747.6)" d="m649 1446.9c3.287 57.044 12.918 112.37 28.219 165.31 180.54 188.88 437.56 306.94 722.78 306.94s542.24-118.06 722.78-306.94c15.301-52.938 24.932-108.27 28.219-165.31-178.46 198.89-448.61 325.69-751 325.69s-572.54-126.8-751-325.69zm98.594 330.84c89.397 155.27 232.63 275.62 404.22 335.56l12.031 14.094c75.675 18.13 154.77 27.75 236.16 27.75s160.48-9.6205 236.16-27.75l12.031-14.094c171.59-59.943 314.82-180.29 404.22-335.56-172.58 143.46-401.38 230.84-652.41 230.84s-479.83-87.382-652.41-230.84zm492.31 438.78 160.09 187.56 160.09-187.56c-52.087 7.9261-105.56 12.062-160.09 12.062s-108.01-4.1364-160.09-12.062z" fill="#1a1a1a"/>
   <path transform="translate(0 -1747.6)" d="m2086.6 1520.1c-38.832 35.111-80.554 66.962-124.53 95.344-8.4019 45.019-22.837 99.263-51.031 157.78 48.431-28.879 94.361-61.884 137.12-98.563 17.053-46.643 30.278-98.022 38.438-154.56zm-144.22 343.81c-46.716 28.614-95.78 53.33-146.53 73.969-57.388 60.165-134.23 120.06-237.53 175.09 0 0 225.19-49.33 384.06-249.06zm-435.88 383.41c-24.948 5.7573-71 3.8125-71 3.8125l-28.812 126.69s59.511-80.603 99.812-130.5z"/>
   <path transform="translate(0 -1747.6)" d="m2074.3 1339.4c-31.193 0.4088-86.71 114.75-97.625 174.78-3.5142 19.328-5.8554 49.753-12.25 87.75 44.008-29.023 85.626-61.579 124.22-97.375 3.9057-31.072 6.3341-63.657 7-97.844 0-48.817-8.6607-67.479-21.344-67.313zm-33.531 354.5c-43.199 35.706-89.397 67.774-137.97 95.719-21.953 42.22-51.258 86.368-90.688 130.59 51.303-22.152 100.75-48.553 147.59-79.094 30.954-42.53 58.761-91.334 81.062-147.22z" fill="#ffb400"/>
  </g>
  <path transform="translate(-8.6212 -1747.6)" d="m2272.2 2496.8a863.6 103.63 0 1 1 -1727.2 0 863.6 103.63 0 1 1 1727.2 0z" fill="#d4aa00"/>
  <path transform="matrix(.83861 0 0 .73175 218.72 -1094.2)" d="m2272.2 2496.8a863.6 103.63 0 1 1 -1727.2 0 863.6 103.63 0 1 1 1727.2 0z" fill="#a80"/>
  <path transform="matrix(.66261 0 0 .49605 466.63 -513.67)" d="m2272.2 2496.8a863.6 103.63 0 1 1 -1727.2 0 863.6 103.63 0 1 1 1727.2 0z" fill="#806600"/>
 </g>
</svg>
